<svg xmlns="http://www.w3.org/2000/svg" viewBox="0 0 1120 620" width="100%" height="auto"><defs><marker id="arr" markerWidth="8" markerHeight="8" refX="7" refY="4" orient="auto"><path d="M0,0 L8,4 L0,8 Z" fill="#334155"/></marker></defs><rect width="1120" height="620" rx="14" fill="#fff" stroke="#e2e8f0"/><path d="M345,95.0 L345,95.0 L405,95.0 L405,95.0" fill="none" stroke="#334155" stroke-width="1.5" marker-end="url(#arr)"/><text x="375.0" y="91.0" text-anchor="middle" font-size="9" font-family="system-ui" fill="#334155">WAL/页面持久化</text><path d="M705,95.0 L705,95.0 L765,95.0 L765,95.0" fill="none" stroke="#334155" stroke-width="1.5" marker-end="url(#arr)"/><text x="735.0" y="91.0" text-anchor="middle" font-size="9" font-family="system-ui" fill="#334155">存储物化时转码</text><path d="M912.5,145 L912.5,197.5 L555.0,197.5 L555.0,250" fill="none" stroke="#334155" stroke-width="1.5" marker-end="url(#arr)"/><text x="733.75" y="193.5" text-anchor="middle" font-size="9" font-family="system-ui" fill="#334155">Parquet + Delta/Iceberg</text><path d="M705,300.0 L705,300.0 L60,300.0 L60,300.0" fill="none" stroke="#334155" stroke-width="1.5" marker-end="url(#arr)"/><text x="382.5" y="296.0" text-anchor="middle" font-size="9" font-family="system-ui" fill="#334155">直接分析单一逻辑副本</text><path d="M1060,300.0 L1060,300.0 L60,300.0 L60,300.0" fill="none" stroke="#334155" stroke-width="1.5" marker-end="url(#arr)"/><text x="560.0" y="296.0" text-anchor="middle" font-size="9" font-family="system-ui" fill="#334155">治理分析访问</text><path d="M912.5,350 L912.5,402.5 L555.0,402.5 L555.0,455" fill="none" stroke="#334155" stroke-width="1.5" marker-end="url(#arr)"/><text x="733.75" y="398.5" text-anchor="middle" font-size="9" font-family="system-ui" fill="#334155">身份/权限/工具治理</text><path d="M555.0,350 L555.0,402.5 L202.5,402.5 L202.5,455" fill="none" stroke="#334155" stroke-width="1.5" marker-end="url(#arr)"/><text x="378.75" y="398.5" text-anchor="middle" font-size="9" font-family="system-ui" fill="#334155">Delta Sync 派生搜索索引</text><path d="M345,505.0 L345,505.0 L405,505.0 L405,505.0" fill="none" stroke="#334155" stroke-width="1.5" marker-end="url(#arr)"/><text x="375.0" y="501.0" text-anchor="middle" font-size="9" font-family="system-ui" fill="#334155">检索工具</text><path d="M705,505.0 L705,505.0 L765,505.0 L765,505.0" fill="none" stroke="#334155" stroke-width="1.5" marker-end="url(#arr)"/><text x="735.0" y="501.0" text-anchor="middle" font-size="9" font-family="system-ui" fill="#334155">部署与调用</text><rect x="60" y="45" width="285" height="100" rx="10" fill="#dbeafe" stroke="#2563eb" stroke-width="2"/><rect x="68" y="52" width="150" height="18" rx="9" fill="#2563eb"/><text x="76" y="65" font-size="10" font-weight="700" font-family="system-ui" fill="#fff">数据库内核/数据库节点</text><text x="202.5" y="88" text-anchor="middle" font-size="11" font-weight="700" font-family="system-ui" fill="#2563eb">Lakebase Postgres Compute</text><text x="202.5" y="102" text-anchor="middle" font-size="9.5" font-weight="400" font-family="system-ui" fill="#334155">无状态标准 Postgres 计算层</text><text x="202.5" y="116" text-anchor="middle" font-size="9.5" font-weight="400" font-family="system-ui" fill="#334155">仅持有 shared buffers 与本地缓存</text><text x="202.5" y="130" text-anchor="middle" font-size="9.5" font-weight="400" font-family="system-ui" fill="#334155">[D1][D2]</text><rect x="405" y="45" width="300" height="100" rx="10" fill="#f1f5f9" stroke="#64748b" stroke-width="2"/><rect x="413" y="52" width="150" height="18" rx="9" fill="#64748b"/><text x="421" y="65" font-size="10" font-weight="700" font-family="system-ui" fill="#fff">存储/Catalog/开放格式</text><text x="555.0" y="88" text-anchor="middle" font-size="11" font-weight="700" font-family="system-ui" fill="#64748b">Lakebase Durable Storage</text><text x="555.0" y="102" text-anchor="middle" font-size="9.5" font-weight="400" font-family="system-ui" fill="#334155">Safekeepers + Pageservers + Cloud Object Storage</text><text x="555.0" y="116" text-anchor="middle" font-size="9.5" font-weight="400" font-family="system-ui" fill="#334155">提交持久化，计算与存储分离</text><text x="555.0" y="130" text-anchor="middle" font-size="9.5" font-weight="400" font-family="system-ui" fill="#334155">[D1][D2]</text><rect x="765" y="45" width="295" height="100" rx="10" fill="#cffafe" stroke="#0891b2" stroke-width="2"/><rect x="773" y="52" width="150" height="18" rx="9" fill="#0891b2"/><text x="781" y="65" font-size="10" font-weight="700" font-family="system-ui" fill="#fff">复制/同步/转码路径</text><text x="912.5" y="88" text-anchor="middle" font-size="11" font-weight="700" font-family="system-ui" fill="#0891b2">LTAP Storage Transcoding</text><text x="912.5" y="102" text-anchor="middle" font-size="9.5" font-weight="400" font-family="system-ui" fill="#334155">行式 Postgres 数据落湖时转为 Parquet 列式</text><text x="912.5" y="116" text-anchor="middle" font-size="9.5" font-weight="400" font-family="system-ui" fill="#334155">不是外部 CDC/复制管道</text><text x="912.5" y="130" text-anchor="middle" font-size="9.5" font-weight="400" font-family="system-ui" fill="#334155">[D3]</text><rect x="60" y="250" width="285" height="100" rx="10" fill="#dbeafe" stroke="#2563eb" stroke-width="2"/><rect x="68" y="257" width="150" height="18" rx="9" fill="#2563eb"/><text x="76" y="270" font-size="10" font-weight="700" font-family="system-ui" fill="#fff">数据库内核/数据库节点</text><text x="202.5" y="293" text-anchor="middle" font-size="11" font-weight="700" font-family="system-ui" fill="#2563eb">Lakehouse//RT / OLAP Engine</text><text x="202.5" y="307" text-anchor="middle" font-size="9.5" font-weight="400" font-family="system-ui" fill="#334155">直接查询 live Lakebase 当前状态</text><text x="202.5" y="321" text-anchor="middle" font-size="9.5" font-weight="400" font-family="system-ui" fill="#334155">与 Postgres 各用专门引擎</text><text x="202.5" y="335" text-anchor="middle" font-size="9.5" font-weight="400" font-family="system-ui" fill="#334155">[D3]</text><rect x="405" y="250" width="300" height="100" rx="10" fill="#f1f5f9" stroke="#64748b" stroke-width="2"/><rect x="413" y="257" width="150" height="18" rx="9" fill="#64748b"/><text x="421" y="270" font-size="10" font-weight="700" font-family="system-ui" fill="#fff">存储/Catalog/开放格式</text><text x="555.0" y="293" text-anchor="middle" font-size="11" font-weight="700" font-family="system-ui" fill="#64748b">单一逻辑副本 / 开放格式</text><text x="555.0" y="307" text-anchor="middle" font-size="9.5" font-weight="400" font-family="system-ui" fill="#334155">对象存储中的 Parquet，通过 Delta/Iceberg 读取</text><text x="555.0" y="321" text-anchor="middle" font-size="9.5" font-weight="400" font-family="system-ui" fill="#334155">OLTP 与 OLAP 共用存储基础</text><text x="555.0" y="335" text-anchor="middle" font-size="9.5" font-weight="400" font-family="system-ui" fill="#334155">[D3]</text><rect x="765" y="250" width="295" height="100" rx="10" fill="#dcfce7" stroke="#16a34a" stroke-width="2"/><rect x="773" y="257" width="150" height="18" rx="9" fill="#16a34a"/><text x="781" y="270" font-size="10" font-weight="700" font-family="system-ui" fill="#fff">管控面/托管控制服务</text><text x="912.5" y="293" text-anchor="middle" font-size="11" font-weight="700" font-family="system-ui" fill="#16a34a">Unity Catalog / Unity AI Gateway</text><text x="912.5" y="307" text-anchor="middle" font-size="9.5" font-weight="400" font-family="system-ui" fill="#334155">权限、血缘、审计；模型/Agent/MCP/工具</text><text x="912.5" y="321" text-anchor="middle" font-size="9.5" font-weight="400" font-family="system-ui" fill="#334155">统一作为 securable objects 管理</text><text x="912.5" y="335" text-anchor="middle" font-size="9.5" font-weight="400" font-family="system-ui" fill="#334155">[D4][D5]</text><rect x="60" y="455" width="285" height="100" rx="10" fill="#ffedd5" stroke="#ea580c" stroke-width="2"/><rect x="68" y="462" width="150" height="18" rx="9" fill="#ea580c"/><text x="76" y="475" font-size="10" font-weight="700" font-family="system-ui" fill="#fff">独立计算或托管服务</text><text x="202.5" y="498" text-anchor="middle" font-size="11" font-weight="700" font-family="system-ui" fill="#ea580c">Databricks AI Search</text><text x="202.5" y="512" text-anchor="middle" font-size="9.5" font-weight="400" font-family="system-ui" fill="#334155">独立托管 Serverless 搜索服务</text><text x="202.5" y="526" text-anchor="middle" font-size="9.5" font-weight="400" font-family="system-ui" fill="#334155">Delta Sync index 自动同步源 Delta Table</text><text x="202.5" y="540" text-anchor="middle" font-size="9.5" font-weight="400" font-family="system-ui" fill="#334155">[D6]</text><rect x="405" y="455" width="300" height="100" rx="10" fill="#ffedd5" stroke="#ea580c" stroke-width="2"/><rect x="413" y="462" width="150" height="18" rx="9" fill="#ea580c"/><text x="421" y="475" font-size="10" font-weight="700" font-family="system-ui" fill="#fff">独立计算或托管服务</text><text x="555.0" y="498" text-anchor="middle" font-size="11" font-weight="700" font-family="system-ui" fill="#ea580c">Agent Bricks / Supervisor Agent</text><text x="555.0" y="512" text-anchor="middle" font-size="9.5" font-weight="400" font-family="system-ui" fill="#334155">托管 Agent 运行时；协调 Genie、AI Search、</text><text x="555.0" y="526" text-anchor="middle" font-size="9.5" font-weight="400" font-family="system-ui" fill="#334155">UC Functions、MCP 与自定义 Agent</text><text x="555.0" y="540" text-anchor="middle" font-size="9.5" font-weight="400" font-family="system-ui" fill="#334155">[D5][D7]</text><rect x="765" y="455" width="295" height="100" rx="10" fill="#ffedd5" stroke="#ea580c" stroke-width="2"/><rect x="773" y="462" width="150" height="18" rx="9" fill="#ea580c"/><text x="781" y="475" font-size="10" font-weight="700" font-family="system-ui" fill="#fff">独立计算或托管服务</text><text x="912.5" y="498" text-anchor="middle" font-size="11" font-weight="700" font-family="system-ui" fill="#ea580c">Databricks Apps / Model Serving</text><text x="912.5" y="512" text-anchor="middle" font-size="9.5" font-weight="400" font-family="system-ui" fill="#334155">应用与 Agent 服务部署入口</text><text x="912.5" y="526" text-anchor="middle" font-size="9.5" font-weight="400" font-family="system-ui" fill="#334155">FinThrive 在数小时内上线多 Agent 助手</text><text x="912.5" y="540" text-anchor="middle" font-size="9.5" font-weight="400" font-family="system-ui" fill="#334155">[D8]</text><rect x="60" y="575" width="12" height="12" rx="2" fill="#dbeafe" stroke="#2563eb"/><text x="77" y="585" font-size="9.5" font-family="system-ui" fill="#334155">数据库内核/数据库节点</text><rect x="265" y="575" width="12" height="12" rx="2" fill="#dcfce7" stroke="#16a34a"/><text x="282" y="585" font-size="9.5" font-family="system-ui" fill="#334155">管控面/托管控制服务</text><rect x="470" y="575" width="12" height="12" rx="2" fill="#cffafe" stroke="#0891b2"/><text x="487" y="585" font-size="9.5" font-family="system-ui" fill="#334155">复制/同步/转码路径</text><rect x="675" y="575" width="12" height="12" rx="2" fill="#ffedd5" stroke="#ea580c"/><text x="692" y="585" font-size="9.5" font-family="system-ui" fill="#334155">独立计算或托管服务</text><rect x="880" y="575" width="12" height="12" rx="2" fill="#f1f5f9" stroke="#64748b"/><text x="897" y="585" font-size="9.5" font-family="system-ui" fill="#334155">存储/Catalog/开放格式</text></svg>