<svg xmlns="http://www.w3.org/2000/svg" viewBox="0 0 1120 620" width="100%" height="auto"><defs><marker id="arr" markerWidth="8" markerHeight="8" refX="7" refY="4" orient="auto"><path d="M0,0 L8,4 L0,8 Z" fill="#334155"/></marker></defs><rect width="1120" height="620" rx="14" fill="#fff" stroke="#e2e8f0"/><path d="M205.0,135 L205.0,172.5 L177.5,172.5 L177.5,210" fill="none" stroke="#334155" stroke-width="1.5" marker-end="url(#arr)"/><text x="191.25" y="168.5" text-anchor="middle" font-size="9" font-family="system-ui" fill="#334155">生成/执行 SQL、调用 PL/SQL 工具</text><path d="M700,90.0 L700,90.0 L60,90.0 L60,90.0" fill="none" stroke="#334155" stroke-width="1.5" marker-end="url(#arr)"/><text x="380.0" y="86.0" text-anchor="middle" font-size="9" font-family="system-ui" fill="#334155">暴露 Select AI Agent tools</text><path d="M1060,90.0 L1060,90.0 L60,90.0 L60,90.0" fill="none" stroke="#334155" stroke-width="1.5" marker-end="url(#arr)"/><text x="560.0" y="86.0" text-anchor="middle" font-size="9" font-family="system-ui" fill="#334155">模型推理（按配置）</text><path d="M910.0,135 L910.0,172.5 L707.5,172.5 L707.5,210" fill="none" stroke="#334155" stroke-width="1.5" marker-end="url(#arr)"/><text x="808.75" y="168.5" text-anchor="middle" font-size="9" font-family="system-ui" fill="#334155">Embedding：外部模型或本地 ONNX</text><path d="M295,262.5 L295,262.5 L325,262.5 L325,262.5" fill="none" stroke="#334155" stroke-width="1.5" marker-end="url(#arr)"/><text x="310.0" y="258.5" text-anchor="middle" font-size="9" font-family="system-ui" fill="#334155">同一数据库对象：后台填充/重填列格式</text><path d="M295,262.5 L295,262.5 L590,262.5 L590,262.5" fill="none" stroke="#334155" stroke-width="1.5" marker-end="url(#arr)"/><text x="442.5" y="258.5" text-anchor="middle" font-size="9" font-family="system-ui" fill="#334155">同 SQL 执行计划</text><path d="M442.5,315 L442.5,367.5 L210.0,367.5 L210.0,420" fill="none" stroke="#334155" stroke-width="1.5" marker-end="url(#arr)"/><text x="326.25" y="363.5" text-anchor="middle" font-size="9" font-family="system-ui" fill="#334155">扫描/谓词下推</text><path d="M707.5,315 L707.5,367.5 L210.0,367.5 L210.0,420" fill="none" stroke="#334155" stroke-width="1.5" marker-end="url(#arr)"/><text x="458.75" y="363.5" text-anchor="middle" font-size="9" font-family="system-ui" fill="#334155">距离计算与 Top-K 下推</text><path d="M720,467.5 L720,467.5 L780,467.5 L780,467.5" fill="none" stroke="#334155" stroke-width="1.5" marker-end="url(#arr)"/><text x="750.0" y="463.5" text-anchor="middle" font-size="9" font-family="system-ui" fill="#334155">Iceberg/Catalog 解析</text><path d="M177.5,315 L177.5,367.5 L570.0,367.5 L570.0,420" fill="none" stroke="#334155" stroke-width="1.5" marker-end="url(#arr)"/><text x="373.75" y="363.5" text-anchor="middle" font-size="9" font-family="system-ui" fill="#334155">SQL 原位关联查询</text><rect x="60" y="45" width="290" height="90" rx="10" fill="#dcfce7" stroke="#16a34a" stroke-width="2"/><rect x="68" y="52" width="150" height="18" rx="9" fill="#16a34a"/><text x="76" y="65" font-size="10" font-weight="700" font-family="system-ui" fill="#fff">管控面/托管控制服务</text><text x="205.0" y="88" text-anchor="middle" font-size="11" font-weight="700" font-family="system-ui" fill="#16a34a">Select AI Agent</text><text x="205.0" y="102" text-anchor="middle" font-size="9.5" font-weight="400" font-family="system-ui" fill="#334155">数据库内框架（DBMS_CLOUD_AI_AGENT）</text><text x="205.0" y="116" text-anchor="middle" font-size="9.5" font-weight="400" font-family="system-ui" fill="#334155">Planning / Tool / Reflection / Memory</text><text x="205.0" y="130" text-anchor="middle" font-size="9.5" font-weight="400" font-family="system-ui" fill="#334155">[O4]</text><rect x="410" y="45" width="290" height="90" rx="10" fill="#dcfce7" stroke="#16a34a" stroke-width="2"/><rect x="418" y="52" width="150" height="18" rx="9" fill="#16a34a"/><text x="426" y="65" font-size="10" font-weight="700" font-family="system-ui" fill="#fff">管控面/托管控制服务</text><text x="555.0" y="88" text-anchor="middle" font-size="11" font-weight="700" font-family="system-ui" fill="#16a34a">Autonomous AI Database MCP Server</text><text x="555.0" y="102" text-anchor="middle" font-size="9.5" font-weight="400" font-family="system-ui" fill="#334155">每数据库托管、多租户 MCP 服务</text><text x="555.0" y="116" text-anchor="middle" font-size="9.5" font-weight="400" font-family="system-ui" fill="#334155">无需客户另建 MCP 基础设施</text><text x="555.0" y="130" text-anchor="middle" font-size="9.5" font-weight="400" font-family="system-ui" fill="#334155">[O5]</text><rect x="760" y="45" width="300" height="90" rx="10" fill="#ffedd5" stroke="#ea580c" stroke-width="2"/><rect x="768" y="52" width="150" height="18" rx="9" fill="#ea580c"/><text x="776" y="65" font-size="10" font-weight="700" font-family="system-ui" fill="#fff">独立计算或托管服务</text><text x="910.0" y="88" text-anchor="middle" font-size="11" font-weight="700" font-family="system-ui" fill="#ea580c">模型来源</text><text x="910.0" y="102" text-anchor="middle" font-size="9.5" font-weight="400" font-family="system-ui" fill="#334155">外部 LLM Provider（可选）</text><text x="910.0" y="116" text-anchor="middle" font-size="9.5" font-weight="400" font-family="system-ui" fill="#334155">或数据库内加载 ONNX Embedding</text><text x="910.0" y="130" text-anchor="middle" font-size="9.5" font-weight="400" font-family="system-ui" fill="#334155">[O4][O6]</text><rect x="60" y="210" width="235" height="105" rx="10" fill="#dbeafe" stroke="#2563eb" stroke-width="2"/><rect x="68" y="217" width="150" height="18" rx="9" fill="#2563eb"/><text x="76" y="230" font-size="10" font-weight="700" font-family="system-ui" fill="#fff">数据库内核/数据库节点</text><text x="177.5" y="253" text-anchor="middle" font-size="11" font-weight="700" font-family="system-ui" fill="#2563eb">OLTP 行格式</text><text x="177.5" y="267" text-anchor="middle" font-size="9.5" font-weight="400" font-family="system-ui" fill="#334155">Buffer Cache / ACID / SQL</text><text x="177.5" y="281" text-anchor="middle" font-size="9.5" font-weight="400" font-family="system-ui" fill="#334155">适合点查与更新</text><text x="177.5" y="295" text-anchor="middle" font-size="9.5" font-weight="400" font-family="system-ui" fill="#334155">[O1]</text><rect x="325" y="210" width="235" height="105" rx="10" fill="#dbeafe" stroke="#2563eb" stroke-width="2"/><rect x="333" y="217" width="150" height="18" rx="9" fill="#2563eb"/><text x="341" y="230" font-size="10" font-weight="700" font-family="system-ui" fill="#fff">数据库内核/数据库节点</text><text x="442.5" y="253" text-anchor="middle" font-size="11" font-weight="700" font-family="system-ui" fill="#2563eb">Database In-Memory</text><text x="442.5" y="267" text-anchor="middle" font-size="9.5" font-weight="400" font-family="system-ui" fill="#334155">SGA 内 IM Column Store</text><text x="442.5" y="281" text-anchor="middle" font-size="9.5" font-weight="400" font-family="system-ui" fill="#334155">后台 IMCO/SMCO/Wnnn 填充与重填</text><text x="442.5" y="295" text-anchor="middle" font-size="9.5" font-weight="400" font-family="system-ui" fill="#334155">不是外部 CDC</text><text x="442.5" y="309" text-anchor="middle" font-size="9.5" font-weight="400" font-family="system-ui" fill="#334155">[O1][O2]</text><rect x="590" y="210" width="235" height="105" rx="10" fill="#dbeafe" stroke="#2563eb" stroke-width="2"/><rect x="598" y="217" width="150" height="18" rx="9" fill="#2563eb"/><text x="606" y="230" font-size="10" font-weight="700" font-family="system-ui" fill="#fff">数据库内核/数据库节点</text><text x="707.5" y="253" text-anchor="middle" font-size="11" font-weight="700" font-family="system-ui" fill="#2563eb">AI Vector Search</text><text x="707.5" y="267" text-anchor="middle" font-size="9.5" font-weight="400" font-family="system-ui" fill="#334155">VECTOR 类型 / 向量池 / 索引</text><text x="707.5" y="281" text-anchor="middle" font-size="9.5" font-weight="400" font-family="system-ui" fill="#334155">关系条件与向量检索同 SQL</text><text x="707.5" y="295" text-anchor="middle" font-size="9.5" font-weight="400" font-family="system-ui" fill="#334155">[O1][O3]</text><rect x="855" y="210" width="205" height="105" rx="10" fill="#dbeafe" stroke="#2563eb" stroke-width="2"/><rect x="863" y="217" width="150" height="18" rx="9" fill="#2563eb"/><text x="871" y="230" font-size="10" font-weight="700" font-family="system-ui" fill="#fff">数据库内核/数据库节点</text><text x="957.5" y="253" text-anchor="middle" font-size="11" font-weight="700" font-family="system-ui" fill="#2563eb">Converged Engine</text><text x="957.5" y="267" text-anchor="middle" font-size="9.5" font-weight="400" font-family="system-ui" fill="#334155">JSON / Graph / Spatial / Relational</text><text x="957.5" y="281" text-anchor="middle" font-size="9.5" font-weight="400" font-family="system-ui" fill="#334155">统一安全与事务</text><text x="957.5" y="295" text-anchor="middle" font-size="9.5" font-weight="400" font-family="system-ui" fill="#334155">[O1]</text><rect x="60" y="420" width="300" height="95" rx="10" fill="#f1f5f9" stroke="#64748b" stroke-width="2"/><rect x="68" y="427" width="150" height="18" rx="9" fill="#64748b"/><text x="76" y="440" font-size="10" font-weight="700" font-family="system-ui" fill="#fff">存储/Catalog/开放格式</text><text x="210.0" y="463" text-anchor="middle" font-size="11" font-weight="700" font-family="system-ui" fill="#64748b">Exadata AI Smart Scan</text><text x="210.0" y="477" text-anchor="middle" font-size="9.5" font-weight="400" font-family="system-ui" fill="#334155">存储服务器执行距离计算与 Top-K</text><text x="210.0" y="491" text-anchor="middle" font-size="9.5" font-weight="400" font-family="system-ui" fill="#334155">减少网络与 DB Server 处理</text><text x="210.0" y="505" text-anchor="middle" font-size="9.5" font-weight="400" font-family="system-ui" fill="#334155">[O3]</text><rect x="420" y="420" width="300" height="95" rx="10" fill="#f1f5f9" stroke="#64748b" stroke-width="2"/><rect x="428" y="427" width="150" height="18" rx="9" fill="#64748b"/><text x="436" y="440" font-size="10" font-weight="700" font-family="system-ui" fill="#fff">存储/Catalog/开放格式</text><text x="570.0" y="463" text-anchor="middle" font-size="11" font-weight="700" font-family="system-ui" fill="#64748b">Autonomous AI Lakehouse</text><text x="570.0" y="477" text-anchor="middle" font-size="9.5" font-weight="400" font-family="system-ui" fill="#334155">外部 Apache Iceberg 表原位查询</text><text x="570.0" y="491" text-anchor="middle" font-size="9.5" font-weight="400" font-family="system-ui" fill="#334155">统一 Catalog / Data Lake Accelerator</text><text x="570.0" y="505" text-anchor="middle" font-size="9.5" font-weight="400" font-family="system-ui" fill="#334155">[O7]</text><rect x="780" y="420" width="280" height="95" rx="10" fill="#f1f5f9" stroke="#64748b" stroke-width="2"/><rect x="788" y="427" width="150" height="18" rx="9" fill="#64748b"/><text x="796" y="440" font-size="10" font-weight="700" font-family="system-ui" fill="#fff">存储/Catalog/开放格式</text><text x="920.0" y="463" text-anchor="middle" font-size="11" font-weight="700" font-family="system-ui" fill="#64748b">对象存储 / Iceberg 数据</text><text x="920.0" y="477" text-anchor="middle" font-size="9.5" font-weight="400" font-family="system-ui" fill="#334155">OCI / AWS / Azure / GCP</text><text x="920.0" y="491" text-anchor="middle" font-size="9.5" font-weight="400" font-family="system-ui" fill="#334155">开放数据保留在原位置</text><text x="920.0" y="505" text-anchor="middle" font-size="9.5" font-weight="400" font-family="system-ui" fill="#334155">[O7]</text><rect x="60" y="575" width="12" height="12" rx="2" fill="#dbeafe" stroke="#2563eb"/><text x="77" y="585" font-size="9.5" font-family="system-ui" fill="#334155">数据库内核/数据库节点</text><rect x="265" y="575" width="12" height="12" rx="2" fill="#dcfce7" stroke="#16a34a"/><text x="282" y="585" font-size="9.5" font-family="system-ui" fill="#334155">管控面/托管控制服务</text><rect x="470" y="575" width="12" height="12" rx="2" fill="#cffafe" stroke="#0891b2"/><text x="487" y="585" font-size="9.5" font-family="system-ui" fill="#334155">复制/同步/转码路径</text><rect x="675" y="575" width="12" height="12" rx="2" fill="#ffedd5" stroke="#ea580c"/><text x="692" y="585" font-size="9.5" font-family="system-ui" fill="#334155">独立计算或托管服务</text><rect x="880" y="575" width="12" height="12" rx="2" fill="#f1f5f9" stroke="#64748b"/><text x="897" y="585" font-size="9.5" font-family="system-ui" fill="#334155">存储/Catalog/开放格式</text></svg>